<svg width="250" height="278" viewBox="0 0 250 278" fill="none" xmlns="http://www.w3.org/2000/svg">
<mask id="mask0_29_131" style="mask-type:luminance" maskUnits="userSpaceOnUse" x="17" y="10" width="215" height="220">
<path d="M17.4031 10.6913H231.901V229.51H17.4031V10.6913Z" fill="white"/>
</mask>
<g mask="url(#mask0_29_131)">
<path d="M231.952 120.144C231.952 121.935 231.908 123.724 231.823 125.513C231.736 127.302 231.608 129.086 231.436 130.87C231.264 132.651 231.048 134.428 230.791 136.199C230.533 137.97 230.234 139.734 229.892 141.49C229.548 143.247 229.164 144.993 228.737 146.731C228.312 148.468 227.843 150.193 227.333 151.907C226.824 153.62 226.274 155.32 225.682 157.006C225.091 158.692 224.458 160.362 223.788 162.017C223.116 163.671 222.405 165.308 221.655 166.927C220.903 168.544 220.114 170.143 219.287 171.723C218.459 173.302 217.594 174.859 216.693 176.395C215.79 177.931 214.85 179.445 213.875 180.934C212.9 182.423 211.889 183.886 210.845 185.324C209.798 186.763 208.718 188.174 207.605 189.558C206.491 190.941 205.346 192.298 204.166 193.624C202.987 194.952 201.778 196.247 200.536 197.514C199.295 198.78 198.025 200.015 196.724 201.217C195.424 202.42 194.094 203.588 192.737 204.724C191.381 205.86 189.998 206.962 188.588 208.029C187.178 209.097 185.744 210.126 184.284 211.121C182.823 212.116 181.341 213.075 179.835 213.996C178.329 214.915 176.803 215.797 175.255 216.642C173.707 217.485 172.139 218.29 170.554 219.057C168.966 219.822 167.362 220.548 165.741 221.233C164.118 221.917 162.482 222.563 160.829 223.165C159.176 223.77 157.509 224.33 155.83 224.85C154.151 225.371 152.459 225.848 150.757 226.282C149.052 226.718 147.341 227.109 145.619 227.46C143.897 227.809 142.168 228.115 140.432 228.377C138.696 228.64 136.955 228.86 135.208 229.036C133.46 229.211 131.711 229.341 129.958 229.43C128.204 229.519 126.45 229.562 124.694 229.562C122.939 229.562 121.185 229.519 119.431 229.43C117.679 229.341 115.929 229.211 114.182 229.036C112.434 228.86 110.693 228.64 108.956 228.377C107.22 228.115 105.491 227.809 103.77 227.46C102.048 227.109 100.336 226.718 98.6323 226.282C96.93 225.848 95.24 225.371 93.5589 224.85C91.8796 224.33 90.2127 223.77 88.56 223.165C86.9073 222.563 85.2706 221.917 83.6498 221.233C82.0272 220.548 80.4224 219.822 78.8353 219.057C77.25 218.29 75.6824 217.485 74.1343 216.642C72.5862 215.797 71.0594 214.915 69.5539 213.996C68.0483 213.075 66.5659 212.116 65.1064 211.121C63.6453 210.126 62.2107 209.097 60.8009 208.029C59.3911 206.962 58.008 205.86 56.6514 204.724C55.2948 203.588 53.9648 202.42 52.665 201.217C51.3652 200.015 50.0937 198.78 48.8524 197.514C47.6111 196.247 46.4017 194.952 45.2225 193.624C44.0433 192.298 42.8977 190.941 41.7841 189.558C40.6705 188.174 39.5905 186.763 38.5443 185.324C37.4998 183.886 36.489 182.423 35.5137 180.934C34.5384 179.445 33.5986 177.931 32.6977 176.395C31.7951 174.859 30.9298 173.302 30.1016 171.723C29.2753 170.143 28.4862 168.544 27.7343 166.927C26.9842 165.308 26.2731 163.671 25.601 162.017C24.9307 160.362 24.2976 158.692 23.7071 157.006C23.1166 155.32 22.5651 153.62 22.0562 151.907C21.5455 150.193 21.0773 148.468 20.6517 146.731C20.2244 144.993 19.8414 143.247 19.4973 141.49C19.1551 139.734 18.8554 137.97 18.5983 136.199C18.3411 134.428 18.1266 132.651 17.9546 130.87C17.7826 129.086 17.6531 127.302 17.5662 125.513C17.4811 123.724 17.4368 121.935 17.4368 120.144C17.4368 118.353 17.4811 116.564 17.5662 114.775C17.6531 112.987 17.7826 111.202 17.9546 109.42C18.1266 107.636 18.3411 105.86 18.5983 104.089C18.8554 102.318 19.1551 100.554 19.4973 98.7975C19.8414 97.041 20.2244 95.2953 20.6517 93.5568C21.0773 91.8201 21.5455 90.0962 22.0562 88.3812C22.5651 86.6681 23.1166 84.9676 23.7071 83.2816C24.2976 81.5956 24.9307 79.9259 25.601 78.2724C26.2731 76.6172 26.9842 74.98 27.7343 73.361C28.4862 71.7437 29.2753 70.1445 30.1016 68.5653C30.9298 66.986 31.7951 65.4284 32.6977 63.8926C33.5986 62.3567 34.5384 60.8444 35.5137 59.3556C36.489 57.8649 37.4998 56.4015 38.5443 54.9633C39.5905 53.5251 40.6705 52.1141 41.7841 50.7302C42.8977 49.3463 44.0433 47.9895 45.2225 46.6635C46.4017 45.3375 47.6111 44.0405 48.8524 42.7741C50.0937 41.5078 51.3652 40.2741 52.665 39.0711C53.9648 37.8681 55.2948 36.6995 56.6514 35.5634C58.008 34.4274 59.3911 33.3257 60.8009 32.2583C62.2107 31.1928 63.6453 30.1617 65.1064 29.1667C66.5659 28.1718 68.0483 27.213 69.5539 26.294C71.0594 25.3732 72.5862 24.4904 74.1343 23.6456C75.6824 22.8026 77.25 21.9976 78.8353 21.2324C80.4224 20.4654 82.0272 19.74 83.6498 19.0543C85.2706 18.3705 86.9073 17.7265 88.56 17.1223C90.2127 16.5199 91.8796 15.9573 93.5589 15.4381C95.24 14.9171 96.93 14.4414 98.6323 14.0054C100.336 13.5694 102.048 13.1787 103.77 12.8295C105.491 12.4786 107.22 12.1729 108.956 11.9106C110.693 11.6482 112.434 11.4294 114.182 11.2539C115.929 11.0784 117.679 10.9463 119.431 10.8577C121.185 10.7709 122.939 10.7256 124.694 10.7256C126.45 10.7256 128.204 10.7709 129.958 10.8577C131.711 10.9463 133.46 11.0784 135.208 11.2539C136.955 11.4294 138.696 11.6482 140.432 11.9106C142.168 12.1729 143.897 12.4786 145.619 12.8295C147.341 13.1787 149.052 13.5694 150.757 14.0054C152.459 14.4414 154.151 14.9171 155.83 15.4381C157.509 15.9573 159.176 16.5199 160.829 17.1223C162.482 17.7265 164.118 18.3705 165.741 19.0543C167.362 19.74 168.966 20.4654 170.554 21.2324C172.139 21.9976 173.707 22.8026 175.255 23.6456C176.803 24.4904 178.329 25.3732 179.835 26.294C181.341 27.213 182.823 28.1718 184.284 29.1667C185.744 30.1617 187.178 31.1928 188.588 32.2583C189.998 33.3257 191.381 34.4274 192.737 35.5634C194.094 36.6995 195.424 37.8681 196.724 39.0711C198.025 40.2741 199.295 41.5078 200.536 42.7741C201.778 44.0405 202.987 45.3375 204.166 46.6635C205.346 47.9895 206.491 49.3463 207.605 50.7302C208.718 52.1141 209.798 53.5251 210.845 54.9633C211.889 56.4015 212.9 57.8649 213.875 59.3556C214.85 60.8444 215.79 62.3567 216.693 63.8926C217.594 65.4284 218.459 66.986 219.287 68.5653C220.114 70.1445 220.903 71.7437 221.655 73.361C222.405 74.98 223.116 76.6172 223.788 78.2724C224.458 79.9259 225.091 81.5956 225.682 83.2816C226.274 84.9676 226.824 86.6681 227.333 88.3812C227.843 90.0962 228.312 91.8201 228.737 93.5568C229.164 95.2953 229.548 97.041 229.892 98.7975C230.234 100.554 230.533 102.318 230.791 104.089C231.048 105.86 231.262 107.636 231.436 109.42C231.608 111.202 231.736 112.987 231.823 114.775C231.908 116.564 231.952 118.353 231.952 120.144Z" fill="#8BD2F6"/>
</g>
<mask id="mask1_29_131" style="mask-type:luminance" maskUnits="userSpaceOnUse" x="43" y="126" width="189" height="104">
<path d="M43.804 126.892H231.745V229.51H43.804V126.892Z" fill="white"/>
</mask>
<g mask="url(#mask1_29_131)">
<path d="M129.261 146.358C99.1078 157.457 69.5612 172.296 44.2439 192.506C63.8938 215.228 92.6513 229.562 124.686 229.562C181.603 229.562 228.152 184.34 231.716 127.195C196.956 126.235 162.365 134.169 129.261 146.358Z" fill="#7DA34F"/>
<path d="M159.102 158.444C160.758 133.225 206.188 134.632 230.808 136.09C231.229 133.165 231.539 130.196 231.725 127.203C196.956 126.242 162.365 134.169 129.268 146.358C99.1164 157.456 69.5698 172.296 44.2507 192.506C63.9024 215.227 92.6581 229.562 124.694 229.562C147.187 229.562 168.057 222.494 185.293 210.424C183.174 205.638 157.538 182.263 159.102 158.444Z" fill="#729549"/>
</g>
<mask id="mask2_29_131" style="mask-type:luminance" maskUnits="userSpaceOnUse" x="17" y="123" width="159" height="107">
<path d="M17.4741 123.187H175.907V229.51H17.4741V123.187Z" fill="white"/>
</mask>
<g mask="url(#mask2_29_131)">
<path d="M174.035 213.093C158.985 184.829 137.139 160.838 108.955 145.971C80.5005 130.96 48.9767 126.535 17.4883 123.344C19.1445 182.289 66.5092 229.562 124.695 229.562C143.176 229.562 160.574 224.792 175.749 216.394C175.187 215.289 174.614 214.191 174.035 213.093Z" fill="#B8D15C"/>
</g>
<path d="M55.8712 139.263C86.2016 147.044 116.362 163.094 135.877 188.595C144.218 199.489 150.432 212.089 153.275 225.624C161.169 223.402 168.704 220.298 175.758 216.394C175.194 215.289 174.623 214.191 174.043 213.102C158.992 184.838 137.147 160.845 108.962 145.98C80.5093 130.969 48.9855 126.542 17.4954 123.351C17.5964 126.93 17.866 130.455 18.2951 133.938C30.9582 134.254 43.6036 136.116 55.8712 139.263Z" fill="#9CC549"/>
<path d="M177.617 50.296C177.617 45.9634 174.599 42.3527 170.596 41.5295C170.235 36.6398 166.241 32.7884 161.356 32.7884C158.9 32.7884 156.672 33.758 155.016 35.3445C153.207 33.9715 150.971 33.1665 148.54 33.1665C143.446 33.1665 139.174 36.7429 137.996 41.5712C137.374 41.4355 136.735 41.3577 136.072 41.3577C131.228 41.3577 127.31 45.3629 127.31 50.296C127.31 55.0827 131.001 58.9938 135.643 59.2253V59.2326H169.63V59.2C174.102 58.7966 177.617 54.9615 177.617 50.296Z" fill="white" fill-opacity="0.42"/>
<path d="M115.403 61.2586C115.403 56.926 112.384 53.3152 108.382 52.4921C108.02 47.6024 104.027 43.751 99.1414 43.751C96.6872 43.751 94.4581 44.7206 92.8019 46.3071C90.9931 44.9341 88.757 44.1273 86.3276 44.1273C81.2311 44.1273 76.9611 47.7055 75.7836 52.5337C75.1612 52.3963 74.521 52.3203 73.8578 52.3203C69.0149 52.3203 65.0959 56.3254 65.0959 61.2586C65.0959 66.0435 68.7879 69.9564 73.4287 70.1879V70.1952H107.416V70.1608C111.897 69.7592 115.403 65.9241 115.403 61.2586Z" fill="white" fill-opacity="0.42"/>
<path d="M209.401 80.7201H208.82C208.711 75.2731 202.624 73.5148 200.127 75.4703C199.765 70.5823 195.77 66.731 190.885 66.731C188.43 66.731 186.201 67.7006 184.545 69.2871C182.738 67.9141 180.5 67.1072 178.071 67.1072C172.976 67.1072 168.704 70.6855 167.527 75.5137C166.904 75.3762 166.266 75.3003 165.601 75.3003C160.758 75.3003 156.839 79.3054 156.839 84.2368C156.839 89.0234 160.531 92.9345 165.172 93.1679V93.1751H209.401C212.772 93.1751 215.505 90.3874 215.505 86.9485C215.505 83.5078 212.772 80.7201 209.401 80.7201Z" fill="white" fill-opacity="0.42"/>
<path d="M39.1652 162.922C40.7877 162.922 40.7877 160.347 39.1652 160.347C37.5426 160.347 37.5426 162.922 39.1652 162.922Z" fill="#FFF6A0"/>
<path d="M38.4166 177.374C40.0392 177.374 40.0392 174.801 38.4166 174.801C36.7941 174.801 36.7941 177.374 38.4166 177.374Z" fill="#FFF6A0"/>
<path d="M49.608 167.956C49.4821 167.956 49.3562 167.956 49.2374 167.956C48.5813 167.956 47.9429 168.548 47.9766 169.242C48.0103 169.937 48.5317 170.53 49.2374 170.53C49.3633 170.53 49.491 170.53 49.608 170.53C50.2642 170.53 50.9026 169.937 50.8689 169.242C50.8352 168.54 50.3138 167.956 49.608 167.956Z" fill="#FFF6A0"/>
<path d="M47.3719 185.361C48.9944 185.361 48.9944 182.786 47.3719 182.786C45.7493 182.786 45.7404 185.361 47.3719 185.361Z" fill="#FFF6A0"/>
<path d="M57.8058 177.839C57.6799 177.839 57.554 177.839 57.4352 177.839C56.7808 177.839 56.1407 178.43 56.1744 179.125C56.2081 179.82 56.7294 180.411 57.4352 180.411C57.5629 180.411 57.6888 180.411 57.8058 180.411C58.4619 180.411 59.1003 179.82 59.0666 179.125C59.0329 178.43 58.5116 177.839 57.8058 177.839Z" fill="#FFF6A0"/>
<path d="M61.161 199.051C62.7836 199.051 62.7836 196.477 61.161 196.477C59.5385 196.477 59.5385 199.051 61.161 199.051Z" fill="#FFF6A0"/>
<path d="M70.8556 189.547C72.4782 189.547 72.4782 186.972 70.8556 186.972C69.233 186.972 69.233 189.547 70.8556 189.547Z" fill="#FFF6A0"/>
<path d="M87.2603 211.986C88.8829 211.986 88.8829 209.413 87.2603 209.413C85.6377 209.413 85.6289 211.986 87.2603 211.986Z" fill="#FFF6A0"/>
<path d="M98.0738 202.096C99.6963 202.096 99.6963 199.522 98.0738 199.522C96.4512 199.522 96.4423 202.096 98.0738 202.096Z" fill="#FFF6A0"/>
<path d="M100.681 213.504C102.303 213.504 102.303 210.931 100.681 210.931C99.058 210.931 99.058 213.504 100.681 213.504Z" fill="#FFF6A0"/>
<path d="M75.9343 198.141C75.9343 198.27 75.9343 198.398 75.9343 198.519C75.9343 199.189 76.5142 199.84 77.1951 199.806C77.8761 199.771 78.4577 199.239 78.4577 198.519C78.4577 198.391 78.4577 198.261 78.4577 198.141C78.4577 197.472 77.8761 196.821 77.1951 196.855C76.5071 196.89 75.9343 197.421 75.9343 198.141Z" fill="#FFF6A0"/>
<path d="M28.7293 150.749C30.3536 150.749 30.3536 148.176 28.7293 148.176C27.1067 148.176 27.0979 150.749 28.7293 150.749Z" fill="#FFF6A0"/>
<path d="M30.5875 161.489C30.4616 161.489 30.3357 161.489 30.2187 161.489C29.5626 161.489 28.9224 162.08 28.9561 162.775C28.9898 163.47 29.5111 164.061 30.2187 164.061C30.3446 164.061 30.4705 164.061 30.5875 164.061C31.2437 164.061 31.882 163.47 31.8501 162.775C31.8235 162.08 31.2951 161.489 30.5875 161.489Z" fill="#FFF6A0"/>
<path d="M121.928 220.349C123.551 220.349 123.551 217.776 121.928 217.776C120.306 217.776 120.306 220.349 121.928 220.349Z" fill="#FFF6A0"/>
<path d="M97.696 219.585C99.3186 219.585 99.3186 217.013 97.696 217.013C96.0717 217.013 96.0717 219.585 97.696 219.585Z" fill="#FFF6A0"/>
<path d="M70.485 206.66C72.1093 206.66 72.1093 204.086 70.485 204.086C68.8624 204.086 68.8553 206.66 70.485 206.66Z" fill="#FFF6A0"/>
<path d="M57.0575 188.492C56.9316 188.492 56.8057 188.492 56.6869 188.492C56.0325 188.492 55.3924 189.084 55.4261 189.778C55.4598 190.473 55.9811 191.064 56.6869 191.064C56.8146 191.064 56.9405 191.064 57.0575 191.064C57.7136 191.064 58.352 190.473 58.3183 189.778C58.2935 189.084 57.7633 188.492 57.0575 188.492Z" fill="#FFF6A0"/>
<path d="M141.318 218.446C142.94 218.446 142.94 215.871 141.318 215.871C139.695 215.871 139.695 218.446 141.318 218.446Z" fill="#FFF6A0"/>
<path d="M106.642 226.053C108.265 226.053 108.265 223.48 106.642 223.48C105.02 223.48 105.02 226.053 106.642 226.053Z" fill="#FFF6A0"/>
<path d="M112.611 214.267C114.234 214.267 114.234 211.694 112.611 211.694C110.989 211.694 110.989 214.267 112.611 214.267Z" fill="#FFF6A0"/>
<path d="M134.238 227.572C135.861 227.572 135.861 224.998 134.238 224.998C132.607 224.998 132.607 227.572 134.238 227.572Z" fill="#FFF6A0"/>
<path d="M120.809 228.712C122.434 228.712 122.434 226.139 120.809 226.139C119.187 226.139 119.187 228.712 120.809 228.712Z" fill="#FFF6A0"/>
<path d="M78.6848 214.267C80.3074 214.267 80.3074 211.694 78.6848 211.694C77.0605 211.694 77.0605 214.267 78.6848 214.267Z" fill="#FFF6A0"/>
<path d="M24.2571 141.622C25.8797 141.622 25.8797 139.05 24.2571 139.05C22.6346 139.05 22.6257 141.622 24.2571 141.622Z" fill="#FFF6A0"/>
<path d="M88.0087 199.815C89.6313 199.815 89.6313 197.24 88.0087 197.24C86.3773 197.24 86.3773 199.815 88.0087 199.815Z" fill="#FFF6A0"/>
<path d="M133.12 218.068C134.742 218.068 134.742 215.493 133.12 215.493C131.488 215.493 131.488 218.068 133.12 218.068Z" fill="#FFF6A0"/>
<path d="M38.4166 171.67C40.0392 171.67 40.0392 169.098 38.4166 169.098C36.7941 169.098 36.7941 171.67 38.4166 171.67Z" fill="#FFF6A0"/>
<path d="M188.522 200.046C188.522 200.175 188.522 200.303 188.522 200.422C188.522 201.092 189.102 201.745 189.783 201.711C190.464 201.676 191.046 201.144 191.046 200.422C191.046 200.294 191.046 200.166 191.046 200.046C191.046 199.377 190.464 198.724 189.783 198.758C189.102 198.793 188.522 199.324 188.522 200.046Z" fill="#FFF6A0"/>
<path d="M199.336 191.871C199.336 192 199.336 192.128 199.336 192.249C199.336 192.917 199.916 193.57 200.597 193.536C201.278 193.501 201.858 192.969 201.858 192.249C201.858 192.119 201.858 191.991 201.858 191.871C201.858 191.202 201.278 190.551 200.597 190.585C199.916 190.61 199.336 191.151 199.336 191.871Z" fill="#FFF6A0"/>
<path d="M204.7 180.411C206.323 180.411 206.323 177.839 204.7 177.839C203.078 177.839 203.069 180.411 204.7 180.411Z" fill="#FFF6A0"/>
<path d="M217.599 152.507C217.599 152.637 217.599 152.766 217.599 152.885C217.599 153.555 218.179 154.206 218.86 154.171C219.541 154.137 220.121 153.605 220.121 152.885C220.121 152.757 220.121 152.628 220.121 152.507C220.121 151.84 219.541 151.187 218.86 151.221C218.179 151.246 217.599 151.787 217.599 152.507Z" fill="#FFF6A0"/>
<path d="M204.7 165.966C206.323 165.966 206.323 163.394 204.7 163.394C203.078 163.394 203.069 165.966 204.7 165.966Z" fill="#FFF6A0"/>
<path d="M214.386 173.566C216.01 173.566 216.01 170.994 214.386 170.994C212.764 170.994 212.764 173.566 214.386 173.566Z" fill="#FFF6A0"/>
<path d="M193.509 180.797C195.131 180.797 195.131 178.224 193.509 178.224C191.886 178.224 191.886 180.797 193.509 180.797Z" fill="#FFF6A0"/>
<path d="M185.311 193.346C186.934 193.346 186.934 190.773 185.311 190.773C183.689 190.773 183.689 193.346 185.311 193.346Z" fill="#FFF6A0"/>
<path d="M215.732 160.726C215.606 160.854 215.48 160.982 215.361 161.104C214.883 161.592 214.883 162.431 215.361 162.922C215.842 163.41 216.665 163.41 217.145 162.922C217.271 162.793 217.397 162.665 217.514 162.544C217.995 162.055 217.995 161.214 217.514 160.726C217.035 160.228 216.22 160.228 215.732 160.726Z" fill="#FFF6A0"/>
<path d="M223.568 141.478C223.568 141.606 223.568 141.734 223.568 141.854C223.568 142.523 224.148 143.174 224.831 143.14C225.512 143.107 226.092 142.576 226.092 141.854C226.092 141.725 226.092 141.597 226.092 141.478C226.092 140.808 225.512 140.155 224.831 140.19C224.148 140.224 223.568 140.756 223.568 141.478Z" fill="#FFF6A0"/>
<path d="M63.3901 149.747H55.561L57.2687 94.8828H61.6913L63.3901 149.747Z" fill="#E9E9E9"/>
<path d="M61.278 94.6078L49.5743 62.8017C49.3225 62.1161 48.3135 62.3549 48.388 63.0839L50.7606 85.6007C50.9947 87.8493 52.1225 89.8989 53.8798 91.2792L59.2529 95.5087" fill="white"/>
<path d="M58.579 96.8383L91.1207 89.615C91.8265 89.4612 91.7342 88.4065 91.0107 88.3812L68.8215 87.5219C66.6102 87.4369 64.4574 88.2781 62.8597 89.8465L57.9832 94.6603" fill="white"/>
<path d="M57.8981 93.8625L30.8997 113.754C30.311 114.183 30.8146 115.109 31.4796 114.844L52.1562 106.582C54.215 105.759 55.8642 104.112 56.7047 102.019L59.2866 95.6209" fill="white"/>
<path d="M63.289 95.0113C63.289 95.2663 63.2641 95.5196 63.2145 95.7692C63.1666 96.0189 63.0939 96.2631 62.9981 96.4983C62.9024 96.7334 62.7854 96.9578 62.647 97.1694C62.5069 97.3829 62.3491 97.5782 62.1718 97.7591C61.9962 97.94 61.8029 98.101 61.5955 98.2422C61.388 98.3833 61.1681 98.5026 60.9376 98.6003C60.7053 98.698 60.4677 98.7722 60.2229 98.8228C59.9765 98.8717 59.73 98.897 59.4799 98.897C59.2299 98.897 58.9816 98.8717 58.7369 98.8228C58.4904 98.7722 58.2528 98.698 58.0223 98.6003C57.79 98.5026 57.5719 98.3833 57.3626 98.2422C57.1551 98.101 56.9636 97.94 56.7863 97.7591C56.609 97.5782 56.4511 97.3829 56.3128 97.1694C56.1727 96.9578 56.0557 96.7334 55.9599 96.4983C55.8642 96.2631 55.7915 96.0189 55.7436 95.7692C55.694 95.5196 55.6709 95.2663 55.6709 95.0113C55.6709 94.7562 55.694 94.5029 55.7436 94.2533C55.7915 94.0036 55.8642 93.7594 55.9599 93.5242C56.0557 93.2891 56.1727 93.0648 56.3128 92.8531C56.4511 92.6396 56.609 92.4443 56.7863 92.2634C56.9636 92.0825 57.1551 91.9215 57.3626 91.7804C57.5719 91.6392 57.79 91.518 58.0223 91.4222C58.2528 91.3245 58.4904 91.2503 58.7369 91.1997C58.9816 91.1508 59.2299 91.1255 59.4799 91.1255C59.73 91.1255 59.9765 91.1508 60.2229 91.1997C60.4677 91.2503 60.7053 91.3245 60.9376 91.4222C61.1681 91.518 61.388 91.6392 61.5955 91.7804C61.8029 91.9215 61.9962 92.0825 62.1718 92.2634C62.3491 92.4443 62.5069 92.6396 62.647 92.8531C62.7854 93.0648 62.9024 93.2891 62.9981 93.5242C63.0939 93.7594 63.1666 94.0036 63.2145 94.2533C63.2641 94.5029 63.289 94.7562 63.289 95.0113Z" fill="#C8C8C8"/>
<path d="M189.783 151.246H197.612L195.913 96.3843H191.491L189.783 151.246Z" fill="#E9E9E9"/>
<path d="M191.988 96.9668L195.242 63.1527C195.309 62.4237 196.352 62.3893 196.46 63.1183L199.873 85.4977C200.219 87.7282 199.646 90.0111 198.302 91.8111L194.181 97.3105" fill="white"/>
<path d="M194.988 97.079L162.533 104.695C161.826 104.858 161.473 103.863 162.111 103.528L181.821 93.1064C183.788 92.0698 186.084 91.8889 188.186 92.618L194.61 94.8575" fill="white"/>
<path d="M195.282 95.3622L222.282 115.254C222.871 115.683 222.366 116.611 221.703 116.345L201.026 108.083C198.965 107.26 197.318 105.614 196.477 103.521L193.896 97.1205" fill="white"/>
<path d="M197.511 96.5127C197.511 96.7678 197.487 97.0192 197.439 97.2707C197.389 97.5203 197.316 97.7627 197.221 97.9997C197.125 98.2349 197.008 98.4592 196.869 98.6709C196.731 98.8825 196.572 99.0797 196.396 99.2606C196.219 99.4397 196.027 99.6007 195.818 99.7436C195.61 99.8847 195.391 100.004 195.16 100.102C194.929 100.199 194.69 100.274 194.445 100.323C194.201 100.373 193.952 100.398 193.702 100.398C193.452 100.398 193.204 100.373 192.959 100.323C192.715 100.274 192.475 100.199 192.245 100.102C192.014 100.004 191.794 99.8847 191.587 99.7436C191.378 99.6007 191.186 99.4397 191.009 99.2606C190.831 99.0797 190.674 98.8825 190.535 98.6709C190.397 98.4592 190.278 98.2349 190.182 97.9997C190.087 97.7627 190.016 97.5203 189.966 97.2707C189.918 97.0192 189.893 96.7678 189.893 96.5127C189.893 96.2576 189.918 96.0044 189.966 95.7547C190.016 95.5033 190.087 95.2609 190.182 95.0257C190.278 94.7887 190.397 94.5662 190.535 94.3528C190.674 94.1411 190.831 93.9457 191.009 93.7648C191.186 93.5839 191.378 93.4229 191.587 93.2818C191.794 93.1389 192.014 93.0195 192.245 92.9218C192.475 92.8241 192.715 92.7518 192.959 92.7011C193.204 92.6523 193.452 92.627 193.702 92.627C193.952 92.627 194.201 92.6523 194.445 92.7011C194.69 92.7518 194.929 92.8241 195.16 92.9218C195.391 93.0195 195.61 93.1389 195.818 93.2818C196.027 93.4229 196.219 93.5839 196.396 93.7648C196.572 93.9457 196.731 94.1411 196.869 94.3528C197.008 94.5662 197.125 94.7887 197.221 95.0257C197.316 95.2609 197.389 95.5033 197.439 95.7547C197.487 96.0044 197.511 96.2576 197.511 96.5127Z" fill="#C8C8C8"/>
<path d="M133.818 191.124H121.391L124.097 104.069H131.11L133.818 191.124Z" fill="#E9E9E9"/>
<path d="M131.11 104.069V50.1585C131.11 48.9917 129.479 48.7764 129.193 49.9089L120.407 84.7179C119.533 88.1912 120.079 91.8798 121.937 94.9334L127.612 104.266" fill="white"/>
<path d="M125.989 103.752L170.041 133.534C170.992 134.176 172.068 132.908 171.302 132.042L147.717 105.339C145.362 102.671 142.041 101.102 138.526 100.999L127.764 100.664" fill="white"/>
<path d="M126.494 101.033L75.514 115.229C74.4127 115.538 74.6397 117.202 75.7835 117.184L111.014 116.671C114.528 116.618 117.876 115.109 120.272 112.475L127.612 104.438" fill="white"/>
<path d="M133.641 104.266C133.641 104.671 133.602 105.071 133.525 105.467C133.447 105.865 133.334 106.251 133.181 106.623C133.029 106.998 132.845 107.352 132.623 107.689C132.403 108.025 132.153 108.336 131.873 108.622C131.593 108.908 131.288 109.163 130.958 109.387C130.628 109.612 130.28 109.802 129.913 109.957C129.548 110.111 129.17 110.229 128.782 110.306C128.394 110.386 128 110.426 127.604 110.426C127.207 110.426 126.815 110.386 126.425 110.306C126.037 110.229 125.659 110.111 125.294 109.957C124.927 109.802 124.579 109.612 124.249 109.387C123.92 109.163 123.615 108.908 123.334 108.622C123.054 108.336 122.804 108.025 122.584 107.689C122.364 107.352 122.178 106.998 122.026 106.623C121.875 106.251 121.76 105.865 121.683 105.467C121.605 105.071 121.566 104.671 121.566 104.266C121.566 103.863 121.605 103.461 121.683 103.065C121.76 102.669 121.875 102.283 122.026 101.909C122.178 101.536 122.364 101.182 122.584 100.845C122.804 100.509 123.054 100.198 123.334 99.9119C123.615 99.626 123.92 99.371 124.249 99.1448C124.579 98.9205 124.927 98.7306 125.294 98.5768C125.659 98.4212 126.037 98.3055 126.425 98.2259C126.815 98.1481 127.207 98.1083 127.604 98.1083C128 98.1083 128.394 98.1481 128.782 98.2259C129.17 98.3055 129.548 98.4212 129.913 98.5768C130.28 98.7306 130.628 98.9205 130.958 99.1448C131.288 99.371 131.593 99.626 131.873 99.9119C132.153 100.198 132.403 100.509 132.623 100.845C132.845 101.182 133.029 101.536 133.181 101.909C133.334 102.283 133.447 102.669 133.525 103.065C133.602 103.461 133.641 103.863 133.641 104.266Z" fill="#C8C8C8"/>
<mask id="mask3_29_131" style="mask-type:luminance" maskUnits="userSpaceOnUse" x="6" y="0" width="237" height="241">
<path d="M6.9231 0H242.19V240.006H6.9231V0Z" fill="white"/>
</mask>
<g mask="url(#mask3_29_131)">
<path d="M124.609 0C59.6768 0 6.9231 53.8164 6.9231 120.057C6.9231 186.298 59.6768 240.114 124.609 240.114C189.542 240.114 242.296 186.298 242.296 120.057C242.296 53.8164 189.542 0 124.609 0ZM124.609 5.21901C186.845 5.21901 237.178 56.5679 237.178 120.057C237.178 183.546 186.845 234.895 124.609 234.895C62.374 234.895 12.039 183.546 12.039 120.057C12.039 56.5679 62.374 5.21901 124.609 5.21901Z" fill="#09AA23"/>
</g>
<path d="M9.77439 277.081L9.06508 277.008L8.36285 277.081L7.54714 277.044L6.87329 276.9L5.41919 277.008L4.7808 276.972L4.00764 277.044L1.4541 277.008L0.390125 276.538L0.106398 275.561L0.0354659 274.765L0.141863 272.276L0.0354659 271.552L0.106398 270.865L0.141863 265.018L0.0354659 264.367L0.0709317 261.4L0.141863 260.72L0.0354659 259.96L0.106398 256.422L0 255.626L0.106398 254.142L0.0354659 252.767L0.42559 252.015L1.17037 251.725L1.87969 251.762L2.58901 251.689L3.22739 251.762L3.90125 251.617L4.60347 251.725L7.51167 251.653L8.22099 251.725L8.81682 251.689L9.52613 251.762L10.3064 251.689L13.172 251.653L13.8104 251.798H14.5552L15.2645 252.087L15.5837 252.767L15.6546 254.938L15.6192 255.662L15.6546 256.385L15.3 257.029L14.5552 257.464L13.8813 257.5L8.81682 257.427L8.15006 257.572L7.47621 257.536L6.69596 257.825L6.37676 258.513V259.634L6.66049 260.756L7.40527 261.082L9.4552 261.009L10.9448 261.118L11.6896 261.045H13.7749L14.5907 261.509L14.9453 262.522L14.8389 265.771L14.5907 266.494L13.8813 266.784L13.0656 266.747L12.3634 266.82L10.9093 266.784L9.5616 266.856L8.43378 266.747L7.36981 266.784L6.73142 267.182L6.41223 267.941V270.214L6.69596 270.865L7.44074 271.227L8.22099 271.154L8.88775 271.263L9.668 271.227L10.3773 271.299L11.5477 271.154L13.3494 271.19L14.0232 271.299L14.8389 271.227L15.5837 271.552L15.9738 272.276V275.923L15.5837 276.683L14.8389 277.008L9.77439 277.081Z" fill="white"/>
<path d="M40.8632 276.357L40.3312 275.887L39.4162 274.837L33.9261 269.28L33.3232 268.882L32.8621 268.339L30.3511 265.879L29.8901 265.271L29.429 265.09L29.1808 265.698L29.1098 266.422L29.0744 275.561L28.7197 276.683L28.0104 277.044L27.2656 277.081L25.8895 276.972L25.1093 277.044L23.6552 276.972L22.9104 276.719L22.5912 276.031L22.5203 272.999L22.5912 272.312L22.5203 266.386L22.6267 265.771L22.5557 264.294L22.5912 263.679V252.731L22.9104 252.051L23.7261 251.689L24.7901 251.942L25.6058 252.369L26.1378 252.804L33.1104 259.996L34.1034 260.792L36.6144 263.354L37.1464 263.607L37.3592 262.992L37.4301 256.53L37.3592 255.734L37.4656 254.215L37.3592 253.636L37.3947 252.876L37.7848 252.123L38.4586 251.725L42.8493 251.689L43.5586 252.087L43.9133 252.804L44.0197 257.825L43.9133 258.694V262.268L44.0197 262.883L43.9487 276.067L43.5941 276.791L42.8138 277.044L41.8208 276.936L40.8632 276.357Z" fill="white"/>
<path d="M61.2239 277.081L60.5145 277.008L59.8123 277.081L58.9966 277.044L58.3227 276.9L56.8686 277.008L56.2303 276.972L55.4571 277.044L52.9036 277.008L51.8396 276.538L51.5559 275.561L51.4849 274.765L51.5913 272.276L51.4849 271.552L51.5559 270.865L51.5913 265.018L51.4849 264.367L51.5204 261.4L51.5913 260.72L51.4849 259.96L51.5559 256.422L51.4495 255.626L51.5559 254.142L51.4849 252.767L51.8751 252.015L52.6198 251.725L53.3292 251.762L54.0385 251.689L54.6769 251.762L55.3507 251.617L56.0529 251.725L58.9611 251.653L59.6705 251.725L60.2663 251.689L60.9756 251.762L61.7558 251.689L64.6215 251.653L65.2599 251.798H66.0047L66.714 252.087L67.0332 252.767L67.1041 254.938L67.0686 255.662L67.1041 256.385L66.7494 257.029L66.0047 257.464L65.3308 257.5L60.2663 257.427L59.5995 257.572L58.9257 257.536L58.1454 257.825L57.8262 258.513V259.634L58.11 260.756L58.8547 261.082L60.9047 261.009L62.3942 261.118L63.139 261.045H65.2244L66.0401 261.509L66.3948 262.522L66.2884 265.771L66.0401 266.494L65.3308 266.784L64.5151 266.747L63.8129 266.82L62.3588 266.784L61.0111 266.856L59.8832 266.747L58.8193 266.784L58.1809 267.182L57.8617 267.941V270.214L58.1454 270.865L58.8902 271.227L59.6705 271.154L60.3372 271.263L61.1175 271.227L61.8268 271.299L62.9972 271.154L64.7988 271.19L65.4727 271.299L66.2884 271.227L67.0332 271.552L67.4233 272.276V275.923L67.0332 276.683L66.2884 277.008L61.2239 277.081Z" fill="white"/>
<path d="M74.0761 275.489V270.148L74.0051 269.425L74.0406 266.494L74.1115 265.807L74.0406 265.127V264.403L74.0051 263.607L74.1115 262.16L74.0406 261.436L74.0051 253.165L74.4307 252.152L75.0691 251.798L77.1616 251.617L77.9418 251.653L78.6441 251.798H79.3534L79.9918 251.617H80.7011L81.4104 251.762H83.5313L84.5598 251.689L85.6947 251.725L87.7091 252.189L89.0568 252.659L90.2981 253.346L92.3126 255.517L92.7027 256.096L92.9865 256.704L93.6248 258.766L93.7312 259.49L93.8022 261.762L93.3411 263.86L91.958 266.386L91.4614 266.82L90.972 267.363L90.6528 268.159L90.6883 269.027L91.1139 269.57L92.2417 271.444L92.5609 272.095L93.7667 273.94L94.0504 274.628L94.476 275.127L94.8662 275.923L94.6534 276.719L93.9795 277.044L92.8091 277.081L92.1353 277.008L89.3406 277.044L88.1347 276.719L87.3545 276.068L86.9644 275.452L86.6877 274.729L86.2976 274.193L85.6237 272.891L84.879 271.805L84.5952 271.154L84.1696 270.431L83.4603 269.823L81.4104 269.533L80.7365 269.931L80.4174 270.648L80.3464 272.963L80.4528 273.723L80.3819 274.374V275.597L80.0627 276.646L78.9278 277.008H77.8709L77.3035 277.081L76.1685 276.972L75.4592 277.081L74.4307 276.61L74.0761 275.489ZM81.4104 263.752L82.1907 263.679L83.8859 263.752L84.5598 263.716L85.5883 263.462L86.2267 263.173L86.6168 262.847L86.9998 262.305L87.319 261.581L87.4254 260.503L87.2836 259.562L87.0708 258.983L86.1912 257.862L85.5173 257.681L84.5952 257.608L83.6022 257.391L82.1907 257.536L81.4813 257.5L80.7365 257.789L80.4174 258.477L80.3464 259.996L80.4174 260.611V262.775L80.7011 263.354L81.4104 263.752Z" fill="white"/>
<path d="M110.513 277.334L109.804 277.117L107.79 276.755L107.187 276.574L104.747 275.127L103.576 274.302L102.158 272.782L101.342 271.552L100.704 270.322L99.7176 266.928L99.5403 264.403L99.5757 263.245L100.214 259.671L101.519 256.957L101.909 256.422L102.441 255.879L102.902 255.3L104.463 253.889L106.406 252.659L109.137 251.653L109.804 251.617L110.407 251.4L111.116 251.364L114.408 251.508L116.074 251.979L116.819 252.123L119.295 253.455L119.827 253.889L120.394 254.432L121.174 255.083L122.586 257.174L122.905 257.825L123.402 259.309L123.189 259.924L122.309 260.322L120.607 260.213L119.543 260.358L118.444 260.322L117.6 260.069L116.855 259.453L116.394 258.838L115.968 258.368L115.294 257.898L114.62 257.608L113.315 257.247L111.152 257.319L110.549 257.608L109.875 257.681L109.279 258.006L108.038 258.911L106.938 260.611L106.371 261.907L106.123 263.318L106.158 265.416L106.336 266.567L106.619 267.616L107.293 268.918L107.683 269.425L108.747 270.431L110.655 271.227L112.464 271.444L113.386 271.407L114.762 271.082L115.933 270.612L116.429 270.214L116.961 269.606L117.316 268.991L117.209 268.376L116.677 268.122L116.039 268.014L114.266 268.158L113.244 268.086L112.606 267.688L112.287 267.109V263.679L112.606 262.992L113.315 262.63L114.656 262.522L116.784 262.666L121.565 262.558L122.309 262.666L123.047 262.702L123.721 263.064L124.076 263.679L124.147 265.054L124.076 265.734V266.458L123.934 267.109L123.898 267.724L123.615 269.099L122.905 271.227L122.487 271.733L122.168 272.384L121.813 272.999L121.387 273.506L120.855 273.94L120.323 274.519L119.224 275.38L116.713 276.683L114.053 277.334H110.513Z" fill="white"/>
<path d="M135.69 275.887L135.725 274.519L135.654 273.832L135.725 271.046L135.654 270.322L135.69 267.471L135.512 266.494L135.158 265.488L132.434 261.082L132.15 260.43L131.299 259.273L129.845 256.704L129.462 256.205L127.937 253.636L127.582 252.804L127.689 252.015L128.398 251.653L130.022 251.762L131.831 251.617L132.434 251.762L133.179 251.725L133.995 252.051L134.732 252.731L136.399 255.915L136.789 256.53L137.853 258.549L138.243 259.128L138.633 259.815H139.016L139.478 259.2L140.08 257.825L140.435 257.21L140.79 256.458L141.57 255.3L141.996 254.215L142.918 252.659L143.549 252.051L144.507 251.689L145.11 251.725L146.493 251.689L147.202 251.798L147.94 251.725L149.323 251.762L149.961 251.906L150.103 252.695L149.713 253.6L147.45 257.427L147.025 257.934L142.528 265.488L142.173 266.422L141.96 267.471L141.996 269.57L141.889 270.214V270.937L141.96 271.661L141.854 275.85L141.57 276.61L140.861 277.008L140.151 276.936L139.158 277.008L138.066 276.936L137.428 277.008L136.718 276.972L135.974 276.683L135.69 275.887Z" fill="white"/>
<path d="M161.008 276.176L160.795 275.561L160.476 274.874L157.61 266.675L157.291 266.096L156.298 263.39L156.085 262.594L154.631 258.549L154.319 257.934L152.83 253.817L152.652 252.84L152.794 252.015L153.539 251.798L154.284 251.762L154.915 251.653L155.553 251.798L158.391 251.834L159.057 252.152L159.696 252.731L159.98 253.455L160.121 254.178L160.547 255.589L160.831 256.205L163.101 264.077L163.242 264.946L163.519 264.91L164.051 263.535L164.193 262.775L164.548 262.232L165.824 258.043L166.356 256.74L167.527 253.165L168.123 252.442L168.832 252.087H169.612L170.357 252.514L170.853 253.238L171.137 253.889L171.421 254.504L171.846 255.951L172.13 256.639L172.478 258.006L174.003 262.087L174.18 262.811L174.889 264.873L175.244 264.91L175.457 264.222L175.705 262.703L176.166 261.183L176.308 260.467L178.252 254.106L178.571 253.491L178.748 252.804L179.351 252.051L180.096 251.689L180.77 251.798L181.507 251.725L182.926 251.798L184.167 251.725L184.877 251.834L185.579 252.015L185.792 252.876L185.125 255.083L184.77 255.734L184.593 256.53L182.323 262.666L182.181 263.281L181.862 263.933L181.578 264.946L180.415 268.014L180.096 268.629L177.968 274.91L177.649 275.561L177.436 276.248L176.904 276.9L176.06 277.189L175.457 277.298L174.783 277.334L173.967 276.9L173.293 276.14L173.081 275.452L172.549 274.266L170.534 268.701L169.931 267.471L169.719 266.711L169.364 266.096L169.009 265.988L168.548 267.399L167.91 268.774L167.704 269.533L166.605 272.203L166.427 272.782L166.108 273.542L165.931 274.157L165.576 274.801L165.363 275.597L165.044 276.212L164.477 276.972L163.696 277.261L162.356 277.298L161.576 276.827L161.008 276.176Z" fill="white"/>
<path d="M200.207 277.117L199.497 276.936H197.767L196.703 277.081L195.284 276.936L194.582 277.008L193.482 277.044L192.454 276.9L191.78 276.972H191.106L190.404 276.646L190.049 275.67L190.156 272.348L190.546 271.697L192.879 270.973L193.27 269.895L193.163 258.802L192.844 257.825L192.17 257.391H191.461L190.681 256.993L190.298 256.277L190.369 255.589L190.262 252.912L190.61 252.051L191.319 251.689H192.135L192.809 251.798H195.71L196.419 251.653L197.057 251.725H201.342L201.98 252.123L202.406 252.804L202.37 256.385L202.016 256.957L201.271 257.247L200.561 257.355L199.781 257.681L199.533 258.513L199.398 262.16L199.533 264.765L199.462 265.561L199.497 269.533L199.398 270.214L199.817 271.046L200.668 271.335H201.413L202.193 271.733L202.618 272.421V275.995L202.264 276.683L201.625 277.044L200.207 277.117Z" fill="#09AA23"/>
<path d="M216.184 277.298L214.73 277.044L213.347 276.538L212.645 276.321L211.971 275.995L211.474 275.452L210.233 274.664L209.772 274.121L209.275 273.651L208.609 272.312L208.396 271.661L208.254 270.937L208.147 270.214L208.431 269.461L209.062 269.172L211.793 269.027L212.467 269.135L213.106 269.063L213.808 269.352L214.978 270.648L215.581 271.046L216.184 271.371L217.986 271.552L218.624 271.444L219.724 271.371L220.929 270.829L221.39 270.286L221.674 269.389L221.461 268.484L221 268.05L219.724 267.435L214.162 266.784L212.893 266.349L210.481 265.018L209.169 263.354L208.609 262.087L208.36 260.647L208.325 259.526L208.431 257.753L209.062 255.77L210.304 254.07L212.006 252.876L213.212 252.152L214.553 251.725L215.191 251.617L215.9 251.581L216.681 251.364L219.404 251.436L220.787 251.725L222.766 252.406L225.107 254.07L225.887 255.155L226.873 257.029L226.944 257.717L227.086 258.404L226.803 259.019L226.136 259.526L225.497 259.453H224.788L223.83 259.381L222.164 259.526L221.39 259.056L220.858 258.332L220.256 257.825L219.617 257.391L218.979 257.21L217.844 257.066L216.716 257.102L216.078 257.247L215.51 257.572L214.978 257.97L214.553 258.44L214.375 259.417L214.517 260.503L215.049 261.009L216.361 261.653L218.234 262.051H219.262L220.007 262.196L220.717 262.232L221.426 262.341L224.185 263.209L224.824 263.607L225.391 263.896L226.029 264.475L226.944 265.561L227.334 266.132L227.866 268.231L227.937 269.389L227.725 271.19L227.512 271.805L227.299 272.457L226.909 273.253L226.561 273.759L225.533 274.837L223.121 276.321L222.447 276.646L221.816 276.719L221.107 277.008L220.397 277.117L219.688 277.298L218.979 277.37L216.184 277.298Z" fill="white"/>
<path d="M243.801 277.081L243.091 277.008L242.389 277.081L241.573 277.044L240.899 276.9L239.445 277.008L238.807 276.972L238.034 277.044L235.48 277.008L234.416 276.538L234.133 275.561L234.062 274.765L234.168 272.276L234.062 271.552L234.133 270.865L234.168 265.018L234.062 264.367L234.097 261.4L234.168 260.72L234.062 259.96L234.133 256.422L234.026 255.626L234.133 254.142L234.062 252.767L234.452 252.015L235.196 251.725L235.906 251.762L236.615 251.689L237.254 251.762L237.927 251.617L238.63 251.725L241.538 251.653L242.247 251.725L242.843 251.689L243.552 251.762L244.333 251.689L247.198 251.653L247.837 251.798H248.581L249.291 252.087L249.61 252.767L249.681 254.938L249.645 255.662L249.681 256.385L249.326 257.029L248.581 257.464L247.907 257.5L242.843 257.427L242.176 257.572L241.502 257.536L240.722 257.825L240.403 258.513V259.634L240.687 260.756L241.431 261.082L243.481 261.009L244.971 261.118L245.716 261.045H247.801L248.617 261.509L248.971 262.522L248.865 265.771L248.617 266.494L247.907 266.784L247.092 266.747L246.39 266.82L244.935 266.784L243.588 266.856L242.46 266.747L241.396 266.784L240.758 267.182L240.438 267.941V270.214L240.722 270.865L241.467 271.227L242.247 271.154L242.914 271.263L243.694 271.227L244.403 271.299L245.574 271.154L247.375 271.19L248.049 271.299L248.865 271.227L249.61 271.552L250 272.276V275.923L249.61 276.683L248.865 277.008L243.801 277.081Z" fill="white"/>
</svg>
