<svg width="250" height="278" viewBox="0 0 250 278" fill="none" xmlns="http://www.w3.org/2000/svg">
<mask id="mask0_3_122" style="mask-type:luminance" maskUnits="userSpaceOnUse" x="15" y="10" width="216" height="215">
<path d="M15.9958 10.4802H230.494V224.978H15.9958V10.4802Z" fill="white"/>
</mask>
<g mask="url(#mask0_3_122)">
<path d="M230.545 117.772C230.545 119.527 230.5 121.281 230.415 123.035C230.328 124.789 230.201 126.537 230.029 128.285C229.857 130.032 229.64 131.774 229.383 133.51C229.126 135.246 228.826 136.975 228.484 138.696C228.14 140.418 227.757 142.13 227.33 143.834C226.904 145.536 226.436 147.228 225.925 148.907C225.416 150.586 224.867 152.253 224.274 153.906C223.684 155.559 223.051 157.195 222.38 158.818C221.708 160.439 220.997 162.044 220.247 163.631C219.495 165.216 218.706 166.784 217.88 168.332C217.052 169.88 216.186 171.407 215.286 172.912C214.383 174.418 213.443 175.902 212.468 177.361C211.492 178.821 210.482 180.255 209.437 181.665C208.391 183.075 207.311 184.458 206.197 185.815C205.084 187.171 203.938 188.501 202.759 189.801C201.58 191.103 200.37 192.372 199.129 193.614C197.888 194.855 196.618 196.066 195.316 197.244C194.017 198.423 192.687 199.568 191.33 200.682C189.974 201.796 188.59 202.876 187.181 203.922C185.771 204.968 184.336 205.977 182.877 206.952C181.416 207.928 179.933 208.868 178.428 209.77C176.922 210.671 175.395 211.536 173.847 212.364C172.299 213.191 170.732 213.98 169.146 214.732C167.559 215.482 165.954 216.193 164.333 216.865C162.711 217.535 161.074 218.168 159.421 218.759C157.769 219.351 156.102 219.901 154.423 220.41C152.743 220.921 151.051 221.389 149.349 221.814C147.645 222.242 145.934 222.625 144.212 222.969C142.49 223.311 140.761 223.611 139.025 223.868C137.289 224.125 135.548 224.341 133.801 224.513C132.052 224.685 130.304 224.813 128.55 224.9C126.796 224.987 125.043 225.029 123.287 225.029C121.531 225.029 119.778 224.987 118.024 224.9C116.272 224.813 114.522 224.685 112.775 224.513C111.026 224.341 109.285 224.125 107.549 223.868C105.813 223.611 104.084 223.311 102.362 222.969C100.64 222.625 98.929 222.242 97.2249 221.814C95.5225 221.389 93.8326 220.921 92.1515 220.41C90.4722 219.901 88.8053 219.351 87.1526 218.759C85.4999 218.168 83.8631 217.535 82.2423 216.865C80.6198 216.193 79.0149 215.482 77.4278 214.732C75.8425 213.98 74.2749 213.191 72.7268 212.364C71.1788 211.536 69.652 210.671 68.1464 209.77C66.6409 208.868 65.1584 207.928 63.699 206.952C62.2378 205.977 60.8032 204.968 59.3934 203.922C57.9837 202.876 56.6005 201.796 55.2439 200.682C53.8874 199.568 52.5574 198.423 51.2576 197.244C49.9577 196.066 48.6863 194.855 47.445 193.614C46.2037 192.372 44.9943 191.103 43.815 189.801C42.6358 188.501 41.4903 187.171 40.3766 185.815C39.263 184.458 38.1831 183.075 37.1368 181.665C36.0924 180.255 35.0816 178.821 34.1063 177.361C33.1309 175.902 32.1911 174.418 31.2903 172.912C30.3877 171.407 29.5223 169.88 28.6942 168.332C27.8678 166.784 27.0787 165.216 26.3268 163.631C25.5767 162.044 24.8656 160.439 24.1935 158.818C23.5232 157.195 22.8902 155.559 22.2997 153.906C21.7092 152.253 21.1577 150.586 20.6487 148.907C20.138 147.228 19.6699 145.536 19.2443 143.834C18.8169 142.13 18.4339 140.418 18.0899 138.696C17.7476 136.975 17.4479 135.246 17.1908 133.51C16.9337 131.774 16.7191 130.032 16.5471 128.285C16.3751 126.537 16.2456 124.789 16.1587 123.035C16.0736 121.281 16.0293 119.527 16.0293 117.772C16.0293 116.016 16.0736 114.262 16.1587 112.508C16.2456 110.756 16.3751 109.006 16.5471 107.26C16.7191 105.511 16.9337 103.77 17.1908 102.034C17.4479 100.298 17.7476 98.5686 18.0899 96.8467C18.4339 95.1249 18.8169 93.4136 19.2443 91.7095C19.6699 90.0071 20.138 88.3172 20.6487 86.6361C21.1577 84.9568 21.7092 83.2899 22.2997 81.6372C22.8902 79.9845 23.5232 78.3477 24.1935 76.7269C24.8656 75.1044 25.5767 73.4995 26.3268 71.9124C27.0787 70.3271 27.8678 68.7595 28.6942 67.2114C29.5223 65.6633 30.3877 64.1365 31.2903 62.631C32.1911 61.1255 33.1309 59.643 34.1063 58.1836C35.0816 56.7224 36.0924 55.2878 37.1368 53.878C38.1831 52.4683 39.263 51.0851 40.3766 49.7285C41.4903 48.3719 42.6358 47.042 43.815 45.7422C44.9943 44.4423 46.2037 43.1709 47.445 41.9296C48.6863 40.6883 49.9577 39.4789 51.2576 38.2996C52.5574 37.1204 53.8874 35.9748 55.2439 34.8612C56.6005 33.7476 57.9837 32.6677 59.3934 31.6214C60.8032 30.5769 62.2378 29.5662 63.699 28.5908C65.1584 27.6155 66.6409 26.6757 68.1464 25.7749C69.652 24.8722 71.1788 24.0069 72.7268 23.1788C74.2749 22.3524 75.8425 21.5633 77.4278 20.8132C79.0149 20.0613 80.6198 19.3502 82.2423 18.6781C83.8631 18.0078 85.4999 17.3765 87.1526 16.7843C88.8053 16.1937 90.4722 15.6423 92.1515 15.1333C93.8326 14.6226 95.5225 14.1562 97.2249 13.7289C98.929 13.3015 100.64 12.9185 102.362 12.5762C104.084 12.2322 105.813 11.9325 107.549 11.6754C109.285 11.4183 111.026 11.2037 112.775 11.0317C114.522 10.8597 116.272 10.7302 118.024 10.6433C119.778 10.5582 121.531 10.5139 123.287 10.5139C125.043 10.5139 126.796 10.5582 128.55 10.6433C130.304 10.7302 132.052 10.8597 133.801 11.0317C135.548 11.2037 137.289 11.4183 139.025 11.6754C140.761 11.9325 142.49 12.2322 144.212 12.5762C145.934 12.9185 147.645 13.3015 149.349 13.7289C151.051 14.1562 152.743 14.6226 154.423 15.1333C156.102 15.6423 157.769 16.1937 159.421 16.7843C161.074 17.3765 162.711 18.0078 164.333 18.6781C165.954 19.3502 167.559 20.0613 169.146 20.8132C170.732 21.5633 172.299 22.3524 173.847 23.1788C175.395 24.0069 176.922 24.8722 178.428 25.7749C179.933 26.6757 181.416 27.6155 182.877 28.5908C184.336 29.5662 185.771 30.5769 187.181 31.6214C188.59 32.6677 189.974 33.7476 191.33 34.8612C192.687 35.9748 194.017 37.1204 195.316 38.2996C196.618 39.4789 197.888 40.6883 199.129 41.9296C200.37 43.1709 201.58 44.4423 202.759 45.7422C203.938 47.042 205.084 48.3719 206.197 49.7285C207.311 51.0851 208.391 52.4683 209.437 53.878C210.482 55.2878 211.492 56.7224 212.468 58.1836C213.443 59.643 214.383 61.1255 215.286 62.631C216.186 64.1365 217.052 65.6633 217.88 67.2114C218.706 68.7595 219.495 70.3271 220.247 71.9124C220.997 73.4995 221.708 75.1044 222.38 76.7269C223.051 78.3477 223.684 79.9845 224.274 81.6372C224.867 83.2899 225.416 84.9568 225.925 86.6361C226.436 88.3172 226.904 90.0071 227.33 91.7095C227.757 93.4136 228.14 95.1249 228.484 96.8467C228.826 98.5686 229.126 100.298 229.383 102.034C229.64 103.77 229.855 105.511 230.029 107.26C230.201 109.006 230.328 110.756 230.415 112.508C230.5 114.262 230.545 116.016 230.545 117.772Z" fill="#8BD2F6"/>
</g>
<mask id="mask1_3_122" style="mask-type:luminance" maskUnits="userSpaceOnUse" x="42" y="124" width="189" height="101">
<path d="M42.3965 124.386H230.337V224.978H42.3965V124.386Z" fill="white"/>
</mask>
<g mask="url(#mask1_3_122)">
<path d="M127.854 143.468C97.7006 154.347 68.154 168.894 42.8367 188.705C62.4865 210.978 91.2441 225.029 123.279 225.029C180.196 225.029 226.745 180.7 230.309 124.684C195.549 123.742 160.958 131.52 127.854 143.468Z" fill="#7DA34F"/>
<path d="M157.695 155.316C159.351 130.594 204.781 131.974 229.402 133.403C229.822 130.536 230.132 127.626 230.318 124.691C195.549 123.749 160.958 131.52 127.861 143.468C97.7097 154.348 68.1631 168.894 42.844 188.705C62.4956 210.978 91.2514 225.029 123.288 225.029C145.78 225.029 166.65 218.101 183.887 206.27C181.767 201.577 156.131 178.665 157.695 155.316Z" fill="#729549"/>
</g>
<path d="M54.4637 136.514C84.7942 144.14 114.954 159.873 134.469 184.871C142.811 195.55 149.025 207.901 151.867 221.169C159.762 218.991 167.297 215.948 174.351 212.121C173.787 211.038 173.216 209.962 172.636 208.894C157.584 181.188 135.739 157.669 107.554 143.098C79.1019 128.383 47.578 124.044 16.0879 120.916C16.189 124.423 16.4585 127.879 16.8876 131.293C29.5507 131.603 42.1961 133.428 54.4637 136.514Z" fill="#9CC549"/>
<path d="M176.21 49.3029C176.21 45.0559 173.192 41.5164 169.189 40.7095C168.827 35.9163 164.834 32.141 159.949 32.141C157.493 32.141 155.265 33.0914 153.609 34.6466C151.8 33.3007 149.564 32.5116 147.133 32.5116C142.038 32.5116 137.766 36.0174 136.589 40.7503C135.967 40.6173 135.328 40.5411 134.665 40.5411C129.82 40.5411 125.903 44.4671 125.903 49.3029C125.903 53.995 129.593 57.8289 134.236 58.0559V58.063H168.223V58.0311C172.695 57.6356 176.21 53.8762 176.21 49.3029Z" fill="white" fill-opacity="0.42"/>
<path d="M113.995 60.0491C113.995 55.802 110.977 52.2625 106.975 51.4557C106.613 46.6625 102.62 42.8871 97.7342 42.8871C95.28 42.8871 93.0509 43.8376 91.3947 45.3928C89.5859 44.0468 87.3498 43.256 84.9204 43.256C79.8239 43.256 75.5538 46.7635 74.3764 51.4965C73.7539 51.3617 73.1138 51.2872 72.4506 51.2872C67.6077 51.2872 63.6887 55.2133 63.6887 60.0491C63.6887 64.7394 67.3807 68.5751 72.0214 68.802V68.8091H106.008V68.7754C110.49 68.3818 113.995 64.6224 113.995 60.0491Z" fill="white" fill-opacity="0.42"/>
<path d="M207.994 79.1261H207.412C207.304 73.7867 201.217 72.0631 198.72 73.98C198.358 69.1886 194.363 65.4132 189.477 65.4132C187.023 65.4132 184.794 66.3637 183.138 67.9189C181.331 66.573 179.093 65.7821 176.664 65.7821C171.569 65.7821 167.297 69.2897 166.12 74.0226C165.497 73.8878 164.859 73.8133 164.194 73.8133C159.351 73.8133 155.432 77.7394 155.432 82.5734C155.432 87.2655 159.124 91.0994 163.765 91.3282V91.3353H207.994C211.365 91.3353 214.098 88.6026 214.098 85.2316C214.098 81.8588 211.365 79.1261 207.994 79.1261Z" fill="white" fill-opacity="0.42"/>
<path d="M37.7577 159.705C39.3803 159.705 39.3803 157.181 37.7577 157.181C36.1351 157.181 36.1351 159.705 37.7577 159.705Z" fill="#FFF6A0"/>
<path d="M37.0092 173.871C38.6317 173.871 38.6317 171.35 37.0092 171.35C35.3866 171.35 35.3866 173.871 37.0092 173.871Z" fill="#FFF6A0"/>
<path d="M48.2003 164.64C48.0744 164.64 47.9485 164.64 47.8297 164.64C47.1736 164.64 46.5352 165.22 46.5689 165.901C46.6026 166.581 47.1239 167.163 47.8297 167.163C47.9556 167.163 48.0833 167.163 48.2003 167.163C48.8565 167.163 49.4948 166.581 49.4611 165.901C49.4275 165.213 48.9061 164.64 48.2003 164.64Z" fill="#FFF6A0"/>
<path d="M45.9641 181.701C47.5867 181.701 47.5867 179.177 45.9641 179.177C44.3416 179.177 44.3327 181.701 45.9641 181.701Z" fill="#FFF6A0"/>
<path d="M56.3986 174.327C56.2727 174.327 56.1468 174.327 56.028 174.327C55.3736 174.327 54.7335 174.907 54.7671 175.588C54.8008 176.269 55.3222 176.849 56.028 176.849C56.1556 176.849 56.2815 176.849 56.3986 176.849C57.0547 176.849 57.6931 176.269 57.6594 175.588C57.6257 174.907 57.1043 174.327 56.3986 174.327Z" fill="#FFF6A0"/>
<path d="M59.7535 195.121C61.3761 195.121 61.3761 192.597 59.7535 192.597C58.131 192.597 58.131 195.121 59.7535 195.121Z" fill="#FFF6A0"/>
<path d="M69.4481 185.804C71.0707 185.804 71.0707 183.281 69.4481 183.281C67.8256 183.281 67.8256 185.804 69.4481 185.804Z" fill="#FFF6A0"/>
<path d="M85.8528 207.8C87.4754 207.8 87.4754 205.278 85.8528 205.278C84.2303 205.278 84.2214 207.8 85.8528 207.8Z" fill="#FFF6A0"/>
<path d="M96.6668 198.105C98.2893 198.105 98.2893 195.582 96.6668 195.582C95.0442 195.582 95.0354 198.105 96.6668 198.105Z" fill="#FFF6A0"/>
<path d="M99.2733 209.288C100.896 209.288 100.896 206.766 99.2733 206.766C97.6508 206.766 97.6508 209.288 99.2733 209.288Z" fill="#FFF6A0"/>
<path d="M74.5266 194.229C74.5266 194.355 74.5266 194.481 74.5266 194.6C74.5266 195.256 75.1065 195.894 75.7874 195.86C76.4684 195.827 77.05 195.305 77.05 194.6C77.05 194.474 77.05 194.346 77.05 194.229C77.05 193.573 76.4684 192.934 75.7874 192.968C75.0994 193.002 74.5266 193.523 74.5266 194.229Z" fill="#FFF6A0"/>
<path d="M27.3216 147.772C28.9459 147.772 28.9459 145.251 27.3216 145.251C25.699 145.251 25.6901 147.772 27.3216 147.772Z" fill="#FFF6A0"/>
<path d="M29.1803 158.3C29.0544 158.3 28.9285 158.3 28.8115 158.3C28.1553 158.3 27.5152 158.88 27.5489 159.561C27.5826 160.242 28.1039 160.822 28.8115 160.822C28.9374 160.822 29.0633 160.822 29.1803 160.822C29.8364 160.822 30.4748 160.242 30.4429 159.561C30.4163 158.88 29.8879 158.3 29.1803 158.3Z" fill="#FFF6A0"/>
<path d="M120.521 215.998C122.143 215.998 122.143 213.476 120.521 213.476C118.898 213.476 118.898 215.998 120.521 215.998Z" fill="#FFF6A0"/>
<path d="M96.2888 215.25C97.9114 215.25 97.9114 212.728 96.2888 212.728C94.6645 212.728 94.6645 215.25 96.2888 215.25Z" fill="#FFF6A0"/>
<path d="M69.0775 202.579C70.7018 202.579 70.7018 200.056 69.0775 200.056C67.4549 200.056 67.4478 202.579 69.0775 202.579Z" fill="#FFF6A0"/>
<path d="M55.6503 184.77C55.5244 184.77 55.3985 184.77 55.2797 184.77C54.6253 184.77 53.9852 185.35 54.0189 186.031C54.0525 186.712 54.5739 187.292 55.2797 187.292C55.4073 187.292 55.5332 187.292 55.6503 187.292C56.3064 187.292 56.9448 186.712 56.9111 186.031C56.8863 185.35 56.3561 184.77 55.6503 184.77Z" fill="#FFF6A0"/>
<path d="M139.91 214.132C141.532 214.132 141.532 211.609 139.91 211.609C138.287 211.609 138.287 214.132 139.91 214.132Z" fill="#FFF6A0"/>
<path d="M105.235 221.589C106.858 221.589 106.858 219.067 105.235 219.067C103.613 219.067 103.613 221.589 105.235 221.589Z" fill="#FFF6A0"/>
<path d="M111.204 210.036C112.826 210.036 112.826 207.514 111.204 207.514C109.581 207.514 109.581 210.036 111.204 210.036Z" fill="#FFF6A0"/>
<path d="M132.831 223.079C134.454 223.079 134.454 220.555 132.831 220.555C131.2 220.555 131.2 223.079 132.831 223.079Z" fill="#FFF6A0"/>
<path d="M119.402 224.196C121.026 224.196 121.026 221.674 119.402 221.674C117.779 221.674 117.779 224.196 119.402 224.196Z" fill="#FFF6A0"/>
<path d="M77.2776 210.036C78.9001 210.036 78.9001 207.514 77.2776 207.514C75.6532 207.514 75.6532 210.036 77.2776 210.036Z" fill="#FFF6A0"/>
<path d="M22.8496 138.826C24.4722 138.826 24.4722 136.304 22.8496 136.304C21.2271 136.304 21.2182 138.826 22.8496 138.826Z" fill="#FFF6A0"/>
<path d="M86.6017 195.869C88.2243 195.869 88.2243 193.346 86.6017 193.346C84.9703 193.346 84.9703 195.869 86.6017 195.869Z" fill="#FFF6A0"/>
<path d="M131.712 213.762C133.335 213.762 133.335 211.238 131.712 211.238C130.081 211.238 130.081 213.762 131.712 213.762Z" fill="#FFF6A0"/>
<path d="M37.0092 168.28C38.6317 168.28 38.6317 165.759 37.0092 165.759C35.3866 165.759 35.3866 168.28 37.0092 168.28Z" fill="#FFF6A0"/>
<path d="M187.115 196.096C187.115 196.222 187.115 196.348 187.115 196.465C187.115 197.121 187.695 197.761 188.376 197.728C189.057 197.694 189.639 197.173 189.639 196.465C189.639 196.339 189.639 196.213 189.639 196.096C189.639 195.44 189.057 194.8 188.376 194.834C187.695 194.867 187.115 195.389 187.115 196.096Z" fill="#FFF6A0"/>
<path d="M197.929 188.083C197.929 188.209 197.929 188.335 197.929 188.453C197.929 189.108 198.509 189.748 199.19 189.714C199.87 189.68 200.45 189.159 200.45 188.453C200.45 188.326 200.45 188.2 200.45 188.083C200.45 187.427 199.87 186.788 199.19 186.822C198.509 186.847 197.929 187.377 197.929 188.083Z" fill="#FFF6A0"/>
<path d="M203.293 176.849C204.915 176.849 204.915 174.327 203.293 174.327C201.67 174.327 201.661 176.849 203.293 176.849Z" fill="#FFF6A0"/>
<path d="M216.192 149.496C216.192 149.623 216.192 149.749 216.192 149.866C216.192 150.523 216.772 151.161 217.452 151.127C218.133 151.094 218.713 150.572 218.713 149.866C218.713 149.741 218.713 149.615 218.713 149.496C218.713 148.841 218.133 148.201 217.452 148.235C216.772 148.26 216.192 148.79 216.192 149.496Z" fill="#FFF6A0"/>
<path d="M203.293 162.689C204.915 162.689 204.915 160.167 203.293 160.167C201.67 160.167 201.661 162.689 203.293 162.689Z" fill="#FFF6A0"/>
<path d="M212.979 170.139C214.603 170.139 214.603 167.617 212.979 167.617C211.356 167.617 211.356 170.139 212.979 170.139Z" fill="#FFF6A0"/>
<path d="M192.102 177.227C193.724 177.227 193.724 174.705 192.102 174.705C190.479 174.705 190.479 177.227 192.102 177.227Z" fill="#FFF6A0"/>
<path d="M183.904 189.528C185.526 189.528 185.526 187.006 183.904 187.006C182.281 187.006 182.281 189.528 183.904 189.528Z" fill="#FFF6A0"/>
<path d="M214.325 157.552C214.199 157.678 214.073 157.804 213.954 157.922C213.475 158.401 213.475 159.224 213.954 159.705C214.435 160.183 215.257 160.183 215.738 159.705C215.864 159.579 215.99 159.453 216.107 159.334C216.587 158.855 216.587 158.031 216.107 157.552C215.628 157.064 214.812 157.064 214.325 157.552Z" fill="#FFF6A0"/>
<path d="M222.161 138.684C222.161 138.81 222.161 138.936 222.161 139.053C222.161 139.709 222.741 140.347 223.423 140.314C224.104 140.282 224.684 139.76 224.684 139.053C224.684 138.927 224.684 138.801 224.684 138.684C224.684 138.028 224.104 137.388 223.423 137.421C222.741 137.455 222.161 137.976 222.161 138.684Z" fill="#FFF6A0"/>
<path d="M61.9822 146.79H54.1531L55.8608 93.0093H60.2834L61.9822 146.79Z" fill="#E9E9E9"/>
<path d="M59.8706 92.7398L48.1668 61.5617C47.915 60.8896 46.906 61.1237 46.9805 61.8383L49.3531 83.9105C49.5872 86.1147 50.715 88.1239 52.4724 89.4769L57.8455 93.6229" fill="#EFFEF1"/>
<path d="M57.1718 94.9262L89.7135 87.8454C90.4193 87.6947 90.327 86.6609 89.6035 86.636L67.4143 85.7937C65.203 85.7104 63.0502 86.535 61.4525 88.0724L56.5759 92.7911" fill="#EFFEF1"/>
<path d="M56.4907 92.0091L29.4923 111.508C28.9035 111.929 29.4071 112.836 30.0721 112.576L50.7487 104.477C52.8075 103.67 54.4567 102.057 55.2972 100.005L57.8792 93.7328" fill="#EFFEF1"/>
<path d="M61.8817 93.1352C61.8817 93.3852 61.8569 93.6335 61.8073 93.8782C61.7594 94.1229 61.6867 94.3623 61.5909 94.5929C61.4952 94.8234 61.3781 95.0433 61.2398 95.2507C61.0997 95.46 60.9419 95.6515 60.7646 95.8288C60.589 96.0062 60.3957 96.164 60.1882 96.3023C59.9808 96.4406 59.7609 96.5577 59.5304 96.6534C59.2981 96.7492 59.0604 96.8219 58.8157 96.8715C58.5692 96.9194 58.3227 96.9442 58.0727 96.9442C57.8227 96.9442 57.5744 96.9194 57.3297 96.8715C57.0832 96.8219 56.8456 96.7492 56.6151 96.6534C56.3828 96.5577 56.1646 96.4406 55.9554 96.3023C55.7479 96.164 55.5564 96.0062 55.3791 95.8288C55.2017 95.6515 55.0439 95.46 54.9056 95.2507C54.7655 95.0433 54.6485 94.8234 54.5527 94.5929C54.457 94.3623 54.3843 94.1229 54.3364 93.8782C54.2867 93.6335 54.2637 93.3852 54.2637 93.1352C54.2637 92.8852 54.2867 92.6369 54.3364 92.3922C54.3843 92.1475 54.457 91.9081 54.5527 91.6776C54.6485 91.447 54.7655 91.2271 54.9056 91.0197C55.0439 90.8104 55.2017 90.6189 55.3791 90.4416C55.5564 90.2642 55.7479 90.1064 55.9554 89.9681C56.1646 89.8298 56.3828 89.711 56.6151 89.617C56.8456 89.5212 57.0832 89.4485 57.3297 89.3989C57.5744 89.351 57.8227 89.3262 58.0727 89.3262C58.3227 89.3262 58.5692 89.351 58.8157 89.3989C59.0604 89.4485 59.2981 89.5212 59.5304 89.617C59.7609 89.711 59.9808 89.8298 60.1882 89.9681C60.3957 90.1064 60.589 90.2642 60.7646 90.4416C60.9419 90.6189 61.0997 90.8104 61.2398 91.0197C61.3781 91.2271 61.4952 91.447 61.5909 91.6776C61.6867 91.9081 61.7594 92.1475 61.8073 92.3922C61.8569 92.6369 61.8817 92.8852 61.8817 93.1352Z" fill="#C8C8C8"/>
<path d="M188.376 148.26H196.205L194.506 94.4811H190.084L188.376 148.26Z" fill="#E9E9E9"/>
<path d="M190.58 95.0521L193.834 61.9057C193.901 61.1911 194.944 61.1574 195.052 61.872L198.466 83.8094C198.812 85.9959 198.239 88.2338 196.895 89.9982L192.774 95.389" fill="#EFFEF1"/>
<path d="M193.581 95.162L161.126 102.628C160.418 102.787 160.065 101.812 160.704 101.484L180.414 91.2679C182.38 90.2518 184.677 90.0745 186.778 90.7891L193.203 92.9844" fill="#EFFEF1"/>
<path d="M193.875 93.4792L220.875 112.978C221.464 113.399 220.958 114.308 220.295 114.048L199.618 105.949C197.558 105.142 195.91 103.528 195.07 101.477L192.488 95.2028" fill="#EFFEF1"/>
<path d="M196.104 94.607C196.104 94.857 196.079 95.1035 196.031 95.35C195.982 95.5947 195.909 95.8324 195.813 96.0647C195.718 96.2952 195.601 96.5151 195.462 96.7226C195.324 96.93 195.164 97.1233 194.989 97.3006C194.811 97.4762 194.62 97.634 194.411 97.7741C194.203 97.9124 193.983 98.0295 193.753 98.1252C193.522 98.221 193.283 98.2937 193.038 98.3416C192.793 98.3912 192.545 98.416 192.295 98.416C192.045 98.416 191.797 98.3912 191.552 98.3416C191.307 98.2937 191.068 98.221 190.837 98.1252C190.607 98.0295 190.387 97.9124 190.18 97.7741C189.97 97.634 189.779 97.4762 189.601 97.3006C189.424 97.1233 189.266 96.93 189.128 96.7226C188.99 96.5151 188.871 96.2952 188.775 96.0647C188.679 95.8324 188.608 95.5947 188.559 95.35C188.511 95.1035 188.486 94.857 188.486 94.607C188.486 94.357 188.511 94.1087 188.559 93.864C188.608 93.6175 188.679 93.3799 188.775 93.1494C188.871 92.9171 188.99 92.6989 189.128 92.4897C189.266 92.2822 189.424 92.0907 189.601 91.9134C189.779 91.736 189.97 91.5782 190.18 91.4399C190.387 91.2998 190.607 91.1828 190.837 91.087C191.068 90.9913 191.307 90.9203 191.552 90.8707C191.797 90.8228 192.045 90.798 192.295 90.798C192.545 90.798 192.793 90.8228 193.038 90.8707C193.283 90.9203 193.522 90.9913 193.753 91.087C193.983 91.1828 194.203 91.2998 194.411 91.4399C194.62 91.5782 194.811 91.736 194.989 91.9134C195.164 92.0907 195.324 92.2822 195.462 92.4897C195.601 92.6989 195.718 92.9171 195.813 93.1494C195.909 93.3799 195.982 93.6175 196.031 93.864C196.079 94.1087 196.104 94.357 196.104 94.607Z" fill="#C8C8C8"/>
<path d="M132.41 187.35H119.983L122.689 102.014H129.703L132.41 187.35Z" fill="#E9E9E9"/>
<path d="M129.703 102.014V49.1681C129.703 48.0244 128.071 47.8133 127.786 48.9234L118.999 83.0451C118.125 86.4499 118.671 90.0656 120.53 93.0589L126.204 102.207" fill="#EFFEF1"/>
<path d="M124.582 101.704L168.634 130.897C169.584 131.527 170.661 130.284 169.895 129.435L146.31 103.259C143.955 100.643 140.633 99.1059 137.119 99.0048L126.357 98.6767" fill="#EFFEF1"/>
<path d="M125.087 99.0385L74.1062 112.954C73.005 113.257 73.232 114.888 74.3758 114.87L109.606 114.367C113.12 114.315 116.468 112.837 118.864 110.255L126.204 102.376" fill="#EFFEF1"/>
<path d="M132.233 102.207C132.233 102.605 132.194 102.996 132.118 103.385C132.04 103.775 131.927 104.153 131.774 104.518C131.622 104.885 131.437 105.233 131.215 105.562C130.996 105.892 130.746 106.197 130.465 106.477C130.185 106.758 129.88 107.008 129.55 107.228C129.22 107.447 128.873 107.634 128.506 107.786C128.141 107.937 127.763 108.052 127.374 108.128C126.986 108.206 126.592 108.245 126.197 108.245C125.8 108.245 125.408 108.206 125.018 108.128C124.629 108.052 124.252 107.937 123.886 107.786C123.519 107.634 123.172 107.447 122.842 107.228C122.512 107.008 122.207 106.758 121.927 106.477C121.647 106.197 121.397 105.892 121.177 105.562C120.957 105.233 120.771 104.885 120.618 104.518C120.467 104.153 120.352 103.775 120.276 103.385C120.198 102.996 120.159 102.605 120.159 102.207C120.159 101.812 120.198 101.418 120.276 101.03C120.352 100.642 120.467 100.264 120.618 99.8968C120.771 99.5315 120.957 99.1839 121.177 98.8541C121.397 98.5242 121.647 98.2192 121.927 97.9391C122.207 97.6589 122.512 97.4088 122.842 97.1872C123.172 96.9673 123.519 96.7811 123.886 96.6304C124.252 96.4779 124.629 96.3644 125.018 96.2863C125.408 96.2101 125.8 96.1711 126.197 96.1711C126.592 96.1711 126.986 96.2101 127.374 96.2863C127.763 96.3644 128.141 96.4779 128.506 96.6304C128.873 96.7811 129.22 96.9673 129.55 97.1872C129.88 97.4088 130.185 97.6589 130.465 97.9391C130.746 98.2192 130.996 98.5242 131.215 98.8541C131.437 99.1839 131.622 99.5315 131.774 99.8968C131.927 100.264 132.04 100.642 132.118 101.03C132.194 101.418 132.233 101.812 132.233 102.207Z" fill="#C8C8C8"/>
<mask id="mask2_3_122" style="mask-type:luminance" maskUnits="userSpaceOnUse" x="5" y="0" width="236" height="236">
<path d="M5.51538 0H240.782V235.267H5.51538V0Z" fill="white"/>
</mask>
<g mask="url(#mask2_3_122)">
<path d="M123.202 0C58.2691 0 5.51538 52.7537 5.51538 117.686C5.51538 182.619 58.2691 235.373 123.202 235.373C188.135 235.373 240.888 182.619 240.888 117.686C240.888 52.7537 188.135 0 123.202 0ZM123.202 5.11595C185.437 5.11595 235.771 55.4509 235.771 117.686C235.771 179.922 185.437 230.257 123.202 230.257C60.9663 230.257 10.6313 179.922 10.6313 117.686C10.6313 55.4509 60.9663 5.11595 123.202 5.11595Z" fill="#09AA23"/>
</g>
<mask id="mask3_3_122" style="mask-type:luminance" maskUnits="userSpaceOnUse" x="16" y="120" width="159" height="105">
<path d="M16.0667 120.754H174.5V224.978H16.0667V120.754Z" fill="white"/>
</mask>
<g mask="url(#mask3_3_122)">
<path d="M172.628 208.885C157.578 181.179 135.733 157.662 107.548 143.089C79.0935 128.374 47.5697 124.037 16.0813 120.909C17.7376 178.69 65.1022 225.029 123.288 225.029C141.769 225.029 159.167 220.353 174.342 212.121C173.78 211.038 173.208 209.962 172.628 208.885Z" fill="#B8D15C"/>
</g>
<path d="M9.7744 277.091L9.06508 277.02L8.36286 277.091L7.54714 277.055L6.87329 276.913L5.41919 277.02L4.7808 276.984L4.00765 277.055L1.4541 277.02L0.390125 276.559L0.106398 275.601L0.0354659 274.821L0.141864 272.381L0.0354659 271.672L0.106398 270.998L0.141864 265.266L0.0354659 264.628L0.0709318 261.72L0.141864 261.053L0.0354659 260.308L0.106398 256.84L0 256.059L0.106398 254.605L0.0354659 253.258L0.425591 252.52L1.17037 252.236L1.87969 252.272L2.58901 252.201L3.2274 252.272L3.90125 252.13L4.60347 252.236L7.51167 252.165L8.22099 252.236L8.81682 252.201L9.52614 252.272L10.3064 252.201L13.172 252.165L13.8104 252.307H14.5552L15.2645 252.591L15.5837 253.258L15.6546 255.386L15.6192 256.095L15.6546 256.804L15.3 257.436L14.5552 257.861L13.8813 257.897L8.81682 257.826L8.15006 257.968L7.47621 257.932L6.69596 258.216L6.37677 258.89V259.989L6.66049 261.089L7.40528 261.408L9.4552 261.337L10.9448 261.443L11.6896 261.372H13.775L14.5907 261.826L14.9453 262.819L14.8389 266.004L14.5907 266.713L13.8813 266.997L13.0656 266.962L12.3634 267.033L10.9093 266.997L9.5616 267.068L8.43379 266.962L7.36981 266.997L6.73143 267.387L6.41223 268.132V270.359L6.69596 270.998L7.44074 271.352L8.22099 271.281L8.88775 271.388L9.668 271.352L10.3773 271.423L11.5477 271.281L13.3494 271.317L14.0232 271.423L14.8389 271.352L15.5837 271.672L15.9738 272.381V275.956L15.5837 276.701L14.8389 277.02L9.7744 277.091Z" fill="black"/>
<path d="M40.8627 276.381L40.3307 275.92L39.4157 274.892L33.9256 269.444L33.3227 269.054L32.8616 268.522L30.3506 266.11L29.8896 265.515L29.4285 265.337L29.1803 265.933L29.1093 266.642L29.0739 275.601L28.7192 276.701L28.0099 277.055L27.2651 277.091L25.889 276.984L25.1088 277.055L23.6547 276.984L22.9099 276.736L22.5907 276.062L22.5198 273.09L22.5907 272.416L22.5198 266.607L22.6262 266.004L22.5552 264.557L22.5907 263.954V253.222L22.9099 252.555L23.7256 252.201L24.7896 252.449L25.6053 252.868L26.1373 253.293L33.1099 260.344L34.1029 261.124L36.6139 263.635L37.1459 263.883L37.3587 263.28L37.4296 256.946L37.3587 256.166L37.4651 254.676L37.3587 254.109L37.3942 253.364L37.7843 252.626L38.4581 252.236L42.8488 252.201L43.5581 252.591L43.9128 253.293L44.0192 258.216L43.9128 259.067V262.571L44.0192 263.174L43.9483 276.098L43.5936 276.807L42.8134 277.055L41.8203 276.949L40.8627 276.381Z" fill="black"/>
<path d="M61.2243 277.091L60.515 277.02L59.8128 277.091L58.9971 277.055L58.3232 276.913L56.8691 277.02L56.2308 276.984L55.4576 277.055L52.9041 277.02L51.8401 276.559L51.5563 275.601L51.4854 274.821L51.5918 272.381L51.4854 271.672L51.5563 270.998L51.5918 265.266L51.4854 264.628L51.5209 261.72L51.5918 261.053L51.4854 260.308L51.5563 256.84L51.45 256.059L51.5563 254.605L51.4854 253.258L51.8755 252.52L52.6203 252.236L53.3296 252.272L54.039 252.201L54.6773 252.272L55.3512 252.13L56.0534 252.236L58.9616 252.165L59.6709 252.236L60.2668 252.201L60.9761 252.272L61.7563 252.201L64.622 252.165L65.2604 252.307H66.0052L66.7145 252.591L67.0337 253.258L67.1046 255.386L67.0691 256.095L67.1046 256.804L66.7499 257.436L66.0052 257.861L65.3313 257.897L60.2668 257.826L59.6 257.968L58.9262 257.932L58.1459 258.216L57.8267 258.89V259.989L58.1104 261.089L58.8552 261.408L60.9052 261.337L62.3947 261.443L63.1395 261.372H65.2249L66.0406 261.826L66.3953 262.819L66.2889 266.004L66.0406 266.713L65.3313 266.997L64.5156 266.962L63.8134 267.033L62.3593 266.997L61.0116 267.068L59.8837 266.962L58.8198 266.997L58.1814 267.387L57.8622 268.132V270.359L58.1459 270.998L58.8907 271.352L59.6709 271.281L60.3377 271.388L61.118 271.352L61.8273 271.423L62.9976 271.281L64.7993 271.317L65.4732 271.423L66.2889 271.352L67.0337 271.672L67.4238 272.381V275.956L67.0337 276.701L66.2889 277.02L61.2243 277.091Z" fill="black"/>
<path d="M74.0763 275.53V270.295L74.0054 269.586L74.0408 266.713L74.1118 266.04L74.0408 265.373V264.663L74.0054 263.883L74.1118 262.465L74.0408 261.755L74.0054 253.648L74.431 252.655L75.0693 252.307L77.1618 252.13L77.9421 252.165L78.6443 252.307H79.3536L79.992 252.13H80.7013L81.4106 252.272H83.5315L84.56 252.201L85.6949 252.236L87.7094 252.69L89.0571 253.151L90.2984 253.825L92.3129 255.953L92.703 256.521L92.9867 257.116L93.6251 259.138L93.7315 259.847L93.8024 262.074L93.3414 264.132L91.9582 266.607L91.4617 267.033L90.9722 267.565L90.6531 268.345L90.6885 269.196L91.1141 269.728L92.2419 271.565L92.5611 272.204L93.767 274.012L94.0507 274.686L94.4763 275.176L94.8664 275.956L94.6536 276.736L93.9798 277.055L92.8094 277.091L92.1355 277.02L89.3408 277.055L88.135 276.736L87.3547 276.098L86.9646 275.495L86.688 274.785L86.2978 274.261L85.624 272.984L84.8792 271.92L84.5955 271.281L84.1699 270.572L83.4606 269.976L81.4106 269.693L80.7368 270.083L80.4176 270.785L80.3467 273.055L80.4531 273.8L80.3821 274.438V275.637L80.0629 276.665L78.928 277.02H77.8712L77.3037 277.091L76.1688 276.984L75.4595 277.091L74.431 276.63L74.0763 275.53ZM81.4106 264.025L82.1909 263.954L83.8862 264.025L84.56 263.99L85.5885 263.741L86.2269 263.458L86.617 263.138L87.0001 262.606L87.3193 261.897L87.4257 260.84L87.2838 259.918L87.071 259.351L86.1914 258.251L85.5176 258.074L84.5955 258.003L83.6024 257.79L82.1909 257.932L81.4816 257.897L80.7368 258.18L80.4176 258.854L80.3467 260.344L80.4176 260.947V263.068L80.7013 263.635L81.4106 264.025Z" fill="black"/>
<path d="M110.514 277.339L109.805 277.126L107.79 276.772L107.187 276.594L104.747 275.176L103.577 274.367L102.158 272.877L101.342 271.672L100.704 270.466L99.7181 267.139L99.5408 264.663L99.5762 263.529L100.215 260.025L101.52 257.365L101.91 256.84L102.442 256.308L102.903 255.74L104.463 254.357L106.407 253.151L109.138 252.165L109.805 252.13L110.408 251.917L111.117 251.882L114.408 252.023L116.075 252.484L116.82 252.626L119.295 253.932L119.827 254.357L120.395 254.889L121.175 255.527L122.587 257.577L122.906 258.216L123.402 259.67L123.189 260.273L122.31 260.663L120.608 260.557L119.544 260.698L118.444 260.663L117.6 260.415L116.855 259.812L116.394 259.209L115.969 258.748L115.295 258.287L114.621 258.003L113.316 257.648L111.152 257.719L110.549 258.003L109.876 258.074L109.28 258.393L108.038 259.28L106.939 260.947L106.372 262.216L106.123 263.6L106.159 265.657L106.336 266.784L106.62 267.813L107.294 269.09L107.684 269.586L108.748 270.572L110.656 271.352L112.465 271.565L113.387 271.53L114.763 271.21L115.933 270.749L116.43 270.359L116.962 269.763L117.316 269.161L117.21 268.558L116.678 268.309L116.04 268.203L114.266 268.345L113.245 268.274L112.606 267.884L112.287 267.316V263.954L112.606 263.28L113.316 262.926L114.656 262.819L116.784 262.961L121.565 262.855L122.31 262.961L123.048 262.997L123.721 263.351L124.076 263.954L124.147 265.302L124.076 265.969V266.678L123.934 267.316L123.899 267.919L123.615 269.267L122.906 271.352L122.487 271.849L122.168 272.487L121.813 273.09L121.388 273.587L120.856 274.012L120.324 274.58L119.224 275.424L116.713 276.701L114.053 277.339H110.514Z" fill="black"/>
<path d="M135.69 275.92L135.726 274.58L135.655 273.906L135.726 271.175L135.655 270.466L135.69 267.671L135.513 266.713L135.158 265.727L132.434 261.408L132.151 260.769L131.3 259.634L129.845 257.116L129.462 256.627L127.937 254.109L127.583 253.293L127.689 252.52L128.398 252.165L130.023 252.272L131.832 252.13L132.434 252.272L133.179 252.236L133.995 252.555L134.733 253.222L136.4 256.343L136.79 256.946L137.854 258.925L138.244 259.493L138.634 260.166H139.017L139.478 259.564L140.081 258.216L140.436 257.613L140.79 256.875L141.571 255.74L141.996 254.676L142.918 253.151L143.55 252.555L144.507 252.201L145.11 252.236L146.493 252.201L147.202 252.307L147.94 252.236L149.323 252.272L149.962 252.414L150.104 253.187L149.713 254.073L147.451 257.826L147.025 258.322L142.528 265.727L142.173 266.642L141.961 267.671L141.996 269.728L141.89 270.359V271.069L141.961 271.778L141.854 275.885L141.571 276.63L140.861 277.02L140.152 276.949L139.159 277.02L138.066 276.949L137.428 277.02L136.719 276.984L135.974 276.701L135.69 275.92Z" fill="black"/>
<path d="M161.008 276.204L160.796 275.601L160.476 274.927L157.611 266.891L157.292 266.323L156.298 263.67L156.086 262.89L154.632 258.925L154.319 258.322L152.83 254.286L152.653 253.329L152.794 252.52L153.539 252.307L154.284 252.272L154.915 252.165L155.554 252.307L158.391 252.343L159.058 252.655L159.696 253.222L159.98 253.932L160.122 254.641L160.547 256.024L160.831 256.627L163.101 264.344L163.243 265.195L163.519 265.16L164.051 263.812L164.193 263.068L164.548 262.536L165.825 258.429L166.357 257.152L167.527 253.648L168.123 252.938L168.832 252.591H169.612L170.357 253.009L170.854 253.719L171.137 254.357L171.421 254.96L171.847 256.379L172.13 257.053L172.478 258.393L174.003 262.394L174.18 263.103L174.89 265.125L175.244 265.16L175.457 264.486L175.705 262.997L176.166 261.507L176.308 260.805L178.252 254.57L178.571 253.967L178.748 253.293L179.351 252.555L180.096 252.201L180.77 252.307L181.508 252.236L182.926 252.307L184.168 252.236L184.877 252.343L185.579 252.52L185.792 253.364L185.125 255.527L184.771 256.166L184.593 256.946L182.323 262.961L182.181 263.564L181.862 264.202L181.579 265.195L180.415 268.203L180.096 268.806L177.968 274.963L177.649 275.601L177.436 276.275L176.904 276.913L176.06 277.197L175.457 277.304L174.783 277.339L173.968 276.913L173.294 276.169L173.081 275.495L172.549 274.331L170.534 268.877L169.932 267.671L169.719 266.926L169.364 266.323L169.009 266.217L168.548 267.6L167.91 268.948L167.704 269.693L166.605 272.31L166.428 272.877L166.108 273.622L165.931 274.225L165.576 274.856L165.364 275.637L165.044 276.24L164.477 276.984L163.697 277.268L162.356 277.304L161.576 276.842L161.008 276.204Z" fill="black"/>
<path d="M200.207 277.126L199.497 276.949H197.766L196.702 277.091L195.284 276.949L194.582 277.02L193.482 277.055L192.454 276.913L191.78 276.984H191.106L190.404 276.665L190.049 275.708L190.155 272.452L190.546 271.813L192.879 271.104L193.269 270.047L193.163 259.173L192.844 258.216L192.17 257.79H191.461L190.68 257.4L190.297 256.698L190.368 256.024L190.262 253.4L190.609 252.555L191.319 252.201H192.134L192.808 252.307H195.709L196.419 252.165L197.057 252.236H201.341L201.98 252.626L202.405 253.293L202.37 256.804L202.015 257.365L201.27 257.648L200.561 257.755L199.781 258.074L199.533 258.89L199.398 262.465L199.533 265.018L199.462 265.798L199.497 269.693L199.398 270.359L199.816 271.175L200.668 271.459H201.412L202.193 271.849L202.618 272.523V276.027L202.264 276.701L201.625 277.055L200.207 277.126Z" fill="#09AA23"/>
<path d="M216.184 277.304L214.73 277.055L213.347 276.559L212.644 276.346L211.97 276.027L211.474 275.495L210.233 274.722L209.772 274.19L209.275 273.729L208.608 272.416L208.395 271.778L208.254 271.069L208.147 270.359L208.431 269.622L209.062 269.338L211.793 269.196L212.467 269.302L213.105 269.231L213.808 269.515L214.978 270.785L215.581 271.175L216.184 271.494L217.985 271.672L218.624 271.565L219.723 271.494L220.929 270.962L221.39 270.43L221.674 269.551L221.461 268.664L221 268.238L219.723 267.636L214.162 266.997L212.893 266.572L210.481 265.266L209.169 263.635L208.608 262.394L208.36 260.982L208.325 259.883L208.431 258.145L209.062 256.201L210.304 254.534L212.006 253.364L213.212 252.655L214.552 252.236L215.191 252.13L215.9 252.094L216.68 251.882L219.404 251.953L220.787 252.236L222.766 252.903L225.107 254.534L225.887 255.598L226.873 257.436L226.944 258.109L227.086 258.783L226.802 259.386L226.136 259.883L225.497 259.812H224.788L223.83 259.741L222.163 259.883L221.39 259.422L220.858 258.712L220.255 258.216L219.617 257.79L218.978 257.613L217.844 257.471L216.716 257.506L216.077 257.648L215.51 257.968L214.978 258.358L214.552 258.819L214.375 259.776L214.517 260.84L215.049 261.337L216.361 261.968L218.234 262.358H219.262L220.007 262.5L220.716 262.536L221.426 262.642L224.185 263.493L224.823 263.883L225.391 264.167L226.029 264.734L226.944 265.798L227.334 266.359L227.866 268.416L227.937 269.551L227.724 271.317L227.512 271.92L227.299 272.558L226.909 273.338L226.561 273.835L225.533 274.892L223.121 276.346L222.447 276.665L221.816 276.736L221.106 277.02L220.397 277.126L219.688 277.304L218.978 277.374L216.184 277.304Z" fill="black"/>
<path d="M243.801 277.091L243.091 277.02L242.389 277.091L241.573 277.055L240.899 276.913L239.445 277.02L238.807 276.984L238.034 277.055L235.48 277.02L234.416 276.559L234.133 275.601L234.062 274.821L234.168 272.381L234.062 271.672L234.133 270.998L234.168 265.266L234.062 264.628L234.097 261.72L234.168 261.053L234.062 260.308L234.133 256.84L234.026 256.059L234.133 254.605L234.062 253.258L234.452 252.52L235.196 252.236L235.906 252.272L236.615 252.201L237.254 252.272L237.927 252.13L238.63 252.236L241.538 252.165L242.247 252.236L242.843 252.201L243.552 252.272L244.333 252.201L247.198 252.165L247.837 252.307H248.581L249.291 252.591L249.61 253.258L249.681 255.386L249.645 256.095L249.681 256.804L249.326 257.436L248.581 257.861L247.907 257.897L242.843 257.826L242.176 257.968L241.502 257.932L240.722 258.216L240.403 258.89V259.989L240.687 261.089L241.431 261.408L243.481 261.337L244.971 261.443L245.716 261.372H247.801L248.617 261.826L248.971 262.819L248.865 266.004L248.617 266.713L247.907 266.997L247.092 266.962L246.39 267.033L244.935 266.997L243.588 267.068L242.46 266.962L241.396 266.997L240.758 267.387L240.438 268.132V270.359L240.722 270.998L241.467 271.352L242.247 271.281L242.914 271.388L243.694 271.352L244.403 271.423L245.574 271.281L247.375 271.317L248.049 271.423L248.865 271.352L249.61 271.672L250 272.381V275.956L249.61 276.701L248.865 277.02L243.801 277.091Z" fill="black"/>
</svg>
